<svg xmlns="http://www.w3.org/2000/svg" viewBox="0 0 512 512" fill="none">
  <defs>
    <linearGradient id="bg" x1="64" y1="42" x2="448" y2="470" gradientUnits="userSpaceOnUse">
      <stop stop-color="#FFF7ED"/>
      <stop offset="0.45" stop-color="#FFEDD5"/>
      <stop offset="1" stop-color="#FDBA74"/>
    </linearGradient>
    <linearGradient id="pin" x1="256" y1="138" x2="256" y2="368" gradientUnits="userSpaceOnUse">
      <stop stop-color="#FF8A5B"/>
      <stop offset="1" stop-color="#EA580C"/>
    </linearGradient>
    <linearGradient id="pinShine" x1="218" y1="154" x2="294" y2="246" gradientUnits="userSpaceOnUse">
      <stop stop-color="#FFFFFF" stop-opacity="0.85"/>
      <stop offset="1" stop-color="#FFFFFF" stop-opacity="0"/>
    </linearGradient>
    <filter id="softShadow" x="106" y="118" width="300" height="300" filterUnits="userSpaceOnUse" color-interpolation-filters="sRGB">
      <feFlood flood-opacity="0" result="BackgroundImageFix"/>
      <feColorMatrix in="SourceAlpha" type="matrix" values="0 0 0 0 0 0 0 0 0 0 0 0 0 0 0 0 0 0 127 0" result="hardAlpha"/>
      <feOffset dy="10"/>
      <feGaussianBlur stdDeviation="10"/>
      <feColorMatrix type="matrix" values="0 0 0 0 0.85 0 0 0 0 0.35 0 0 0 0 0.08 0 0 0 0.25 0"/>
      <feBlend mode="normal" in2="BackgroundImageFix" result="effect1_dropShadow"/>
      <feBlend mode="normal" in="SourceGraphic" in2="effect1_dropShadow" result="shape"/>
    </filter>
  </defs>

  <rect width="512" height="512" rx="118" fill="url(#bg)"/>

  <path d="M90 112L98 128L114 136L98 144L90 160L82 144L66 136L82 128L90 112Z" fill="#FDE68A"/>
  <path d="M400 90L404 100L414 104L404 108L400 118L396 108L386 104L396 100L400 90Z" fill="#FDE68A"/>
  <path d="M430 150L432 156L438 158L432 160L430 166L428 160L422 158L428 156L430 150Z" fill="#FDE68A"/>

  <g fill="#FFFFFF" opacity="0.95">
    <ellipse cx="118" cy="154" rx="36" ry="24"/>
    <ellipse cx="150" cy="144" rx="28" ry="20"/>
    <ellipse cx="182" cy="154" rx="32" ry="22"/>
  </g>

  <circle cx="394" cy="166" r="28" fill="#FDE047"/>
  <g stroke="#FACC15" stroke-width="5.8" stroke-linecap="round">
    <line x1="394" y1="120" x2="394" y2="128"/>
    <line x1="394" y1="204" x2="394" y2="212"/>
    <line x1="348" y1="166" x2="356" y2="166"/>
    <line x1="432" y1="166" x2="440" y2="166"/>
    <line x1="361" y1="133" x2="367" y2="139"/>
    <line x1="421" y1="193" x2="427" y2="199"/>
    <line x1="361" y1="199" x2="367" y2="193"/>
    <line x1="421" y1="139" x2="427" y2="133"/>
  </g>

  <g filter="url(#softShadow)">
    <path d="M256 144C210.34 144 174 180.34 174 226C174 278.667 256 368 256 368C256 368 338 278.667 338 226C338 180.34 301.66 144 256 144Z" fill="url(#pin)"/>
    <ellipse cx="234" cy="198" rx="38" ry="48" fill="url(#pinShine)"/>
    <circle cx="256" cy="224" r="48" fill="#FFF7ED"/>
  </g>

  <circle cx="237" cy="218" r="6.4" fill="#7C2D12"/>
  <circle cx="275" cy="218" r="6.4" fill="#7C2D12"/>
  <circle cx="240.5" cy="214.8" r="2.1" fill="#FFFFFF"/>
  <circle cx="278.5" cy="214.8" r="2.1" fill="#FFFFFF"/>
  <ellipse cx="224" cy="234" rx="10.5" ry="6.5" fill="#FDA4AF" opacity="0.75"/>
  <ellipse cx="288" cy="234" rx="10.5" ry="6.5" fill="#FDA4AF" opacity="0.75"/>
  <path d="M240 244C247 252 265 252 272 244" stroke="#7C2D12" stroke-width="5.8" stroke-linecap="round"/>

  <circle cx="192" cy="406" r="8" fill="#FB923C" opacity="0.35"/>
  <circle cx="256" cy="416" r="9.5" fill="#FB923C" opacity="0.55"/>
  <circle cx="320" cy="406" r="8" fill="#FB923C" opacity="0.35"/>
</svg>
