<svg xmlns="http://www.w3.org/2000/svg" viewBox="0 0 192 192" fill="none">
  <defs>
    <linearGradient id="bg" x1="24" y1="16" x2="168" y2="176" gradientUnits="userSpaceOnUse">
      <stop stop-color="#FFF7ED"/>
      <stop offset="0.45" stop-color="#FFEDD5"/>
      <stop offset="1" stop-color="#FDBA74"/>
    </linearGradient>
    <linearGradient id="pin" x1="96" y1="52" x2="96" y2="138" gradientUnits="userSpaceOnUse">
      <stop stop-color="#FF8A5B"/>
      <stop offset="1" stop-color="#EA580C"/>
    </linearGradient>
    <linearGradient id="pinShine" x1="82" y1="58" x2="110" y2="92" gradientUnits="userSpaceOnUse">
      <stop stop-color="#FFFFFF" stop-opacity="0.85"/>
      <stop offset="1" stop-color="#FFFFFF" stop-opacity="0"/>
    </linearGradient>
    <filter id="softShadow" x="40" y="44" width="112" height="112" filterUnits="userSpaceOnUse" color-interpolation-filters="sRGB">
      <feFlood flood-opacity="0" result="BackgroundImageFix"/>
      <feColorMatrix in="SourceAlpha" type="matrix" values="0 0 0 0 0 0 0 0 0 0 0 0 0 0 0 0 0 0 127 0" result="hardAlpha"/>
      <feOffset dy="4"/>
      <feGaussianBlur stdDeviation="4"/>
      <feColorMatrix type="matrix" values="0 0 0 0 0.85 0 0 0 0 0.35 0 0 0 0 0.08 0 0 0 0.25 0"/>
      <feBlend mode="normal" in2="BackgroundImageFix" result="effect1_dropShadow"/>
      <feBlend mode="normal" in="SourceGraphic" in2="effect1_dropShadow" result="shape"/>
    </filter>
  </defs>

  <rect width="192" height="192" rx="44" fill="url(#bg)"/>

  <!-- sparkle -->
  <path d="M34 42L36.8 48.2L43 51L36.8 53.8L34 60L31.2 53.8L25 51L31.2 48.2L34 42Z" fill="#FDE68A"/>
  <path d="M150 34L151.6 37.6L155 39L151.6 40.4L150 44L148.4 40.4L145 39L148.4 37.6L150 34Z" fill="#FDE68A"/>

  <!-- tiny cloud -->
  <g fill="#FFFFFF" opacity="0.95">
    <ellipse cx="44" cy="58" rx="14" ry="9"/>
    <ellipse cx="56" cy="54" rx="11" ry="8"/>
    <ellipse cx="68" cy="58" rx="12" ry="8"/>
  </g>

  <!-- tiny sun -->
  <circle cx="148" cy="62" r="11" fill="#FDE047"/>
  <g stroke="#FACC15" stroke-width="2.2" stroke-linecap="round">
    <line x1="148" y1="44" x2="148" y2="48"/>
    <line x1="148" y1="76" x2="148" y2="80"/>
    <line x1="130" y1="62" x2="134" y2="62"/>
    <line x1="162" y1="62" x2="166" y2="62"/>
    <line x1="135.5" y1="49.5" x2="138.3" y2="52.3"/>
    <line x1="157.7" y1="71.7" x2="160.5" y2="74.5"/>
    <line x1="135.5" y1="74.5" x2="138.3" y2="71.7"/>
    <line x1="157.7" y1="52.3" x2="160.5" y2="49.5"/>
  </g>

  <!-- map pin -->
  <g filter="url(#softShadow)">
    <path d="M96 54C78.879 54 65 67.879 65 85C65 104.5 96 138 96 138C96 138 127 104.5 127 85C127 67.879 113.121 54 96 54Z" fill="url(#pin)"/>
    <ellipse cx="88" cy="74" rx="14" ry="18" fill="url(#pinShine)"/>
    <circle cx="96" cy="84" r="18" fill="#FFF7ED"/>
  </g>

  <!-- kawaii face -->
  <circle cx="89" cy="82" r="2.4" fill="#7C2D12"/>
  <circle cx="103" cy="82" r="2.4" fill="#7C2D12"/>
  <circle cx="90.2" cy="80.8" r="0.8" fill="#FFFFFF"/>
  <circle cx="104.2" cy="80.8" r="0.8" fill="#FFFFFF"/>
  <ellipse cx="84" cy="88" rx="4" ry="2.5" fill="#FDA4AF" opacity="0.75"/>
  <ellipse cx="108" cy="88" rx="4" ry="2.5" fill="#FDA4AF" opacity="0.75"/>
  <path d="M90 91.5C92.5 94.5 99.5 94.5 102 91.5" stroke="#7C2D12" stroke-width="2.2" stroke-linecap="round"/>

  <!-- tiny path dots -->
  <circle cx="72" cy="152" r="3" fill="#FB923C" opacity="0.35"/>
  <circle cx="96" cy="156" r="3.5" fill="#FB923C" opacity="0.55"/>
  <circle cx="120" cy="152" r="3" fill="#FB923C" opacity="0.35"/>
</svg>
