<svg xmlns="http://www.w3.org/2000/svg" viewBox="0 0 512 512" fill="none">
  <defs>
    <linearGradient id="bg" x1="64" y1="42" x2="448" y2="470" gradientUnits="userSpaceOnUse">
      <stop stop-color="#FFEDD5"/>
      <stop offset="1" stop-color="#FDBA74"/>
    </linearGradient>
    <linearGradient id="pin" x1="256" y1="168" x2="256" y2="348" gradientUnits="userSpaceOnUse">
      <stop stop-color="#FF8A5B"/>
      <stop offset="1" stop-color="#EA580C"/>
    </linearGradient>
    <linearGradient id="pinShine" x1="228" y1="182" x2="284" y2="248" gradientUnits="userSpaceOnUse">
      <stop stop-color="#FFFFFF" stop-opacity="0.85"/>
      <stop offset="1" stop-color="#FFFFFF" stop-opacity="0"/>
    </linearGradient>
  </defs>

  <!-- full bleed background for Android maskable safe zone -->
  <rect width="512" height="512" fill="url(#bg)"/>

  <path d="M120 118L126 130L138 136L126 142L120 154L114 142L102 136L114 130L120 118Z" fill="#FDE68A"/>
  <path d="M392 108L396 118L406 122L396 126L392 136L388 126L378 122L388 118L392 108Z" fill="#FDE68A"/>

  <g fill="#FFFFFF" opacity="0.92">
    <ellipse cx="132" cy="156" rx="28" ry="18"/>
    <ellipse cx="156" cy="148" rx="22" ry="16"/>
    <ellipse cx="180" cy="156" rx="24" ry="17"/>
  </g>

  <circle cx="380" cy="164" r="22" fill="#FDE047"/>

  <path d="M256 168C214.817 168 182 200.817 182 242C182 288 256 348 256 348C256 348 330 288 330 242C330 200.817 297.183 168 256 168Z" fill="url(#pin)"/>
  <ellipse cx="236" cy="214" rx="28" ry="36" fill="url(#pinShine)"/>
  <circle cx="256" cy="236" r="36" fill="#FFF7ED"/>

  <circle cx="242" cy="232" r="5" fill="#7C2D12"/>
  <circle cx="270" cy="232" r="5" fill="#7C2D12"/>
  <circle cx="244.5" cy="229.5" r="1.6" fill="#FFFFFF"/>
  <circle cx="272.5" cy="229.5" r="1.6" fill="#FFFFFF"/>
  <ellipse cx="230" cy="246" rx="8" ry="5" fill="#FDA4AF" opacity="0.75"/>
  <ellipse cx="282" cy="246" rx="8" ry="5" fill="#FDA4AF" opacity="0.75"/>
  <path d="M244 254C249.5 260 262.5 260 268 254" stroke="#7C2D12" stroke-width="4.5" stroke-linecap="round"/>

  <circle cx="210" cy="372" r="7" fill="#FB923C" opacity="0.35"/>
  <circle cx="256" cy="380" r="8" fill="#FB923C" opacity="0.55"/>
  <circle cx="302" cy="372" r="7" fill="#FB923C" opacity="0.35"/>
</svg>
